<svg id="SvgjsSvg1006" width="742.5" height="573.5" xmlns="http://www.w3.org/2000/svg" version="1.1" xmlns:xlink="http://www.w3.org/1999/xlink" xmlns:svgjs="http://svgjs.com/svgjs"><defs id="SvgjsDefs1007"><pattern patternUnits="userSpaceOnUse" id="pattern_mark_0" width="300" height="300"><text x="150" y="100" fill="rgba(229,229,229,0.8)" font-size="18" transform="rotate(-45, 150, 150)" style="dominant-baseline: middle; text-anchor: middle;"></text></pattern><pattern patternUnits="userSpaceOnUse" id="pattern_mark_1" width="300" height="300"><text x="150" y="200" fill="rgba(229,229,229,0.8)" font-size="18" transform="rotate(-45, 150, 150)" style="dominant-baseline: middle; text-anchor: middle;"></text></pattern><marker id="SvgjsMarker1099" markerWidth="13" markerHeight="9" refX="9.5" refY="4.5" viewBox="0 0 13 9" orient="auto" markerUnits="userSpaceOnUse" stroke-dasharray="0,0"><path id="SvgjsPath1100" d="M0,0 L13,4.5 L0,9 L0,0" fill="#323232" stroke="#323232" stroke-width="1"></path></marker><marker id="SvgjsMarker1103" markerWidth="13" markerHeight="9" refX="9.5" refY="4.5" viewBox="0 0 13 9" orient="auto" markerUnits="userSpaceOnUse" stroke-dasharray="0,0"><path id="SvgjsPath1104" d="M0,0 L13,4.5 L0,9 L0,0" fill="#323232" stroke="#323232" stroke-width="1"></path></marker><marker id="SvgjsMarker1127" markerWidth="13" markerHeight="9" refX="9.5" refY="4.5" viewBox="0 0 13 9" orient="auto" markerUnits="userSpaceOnUse" stroke-dasharray="0,0"><path id="SvgjsPath1128" d="M0,0 L13,4.5 L0,9 L0,0" fill="#323232" stroke="#323232" stroke-width="1"></path></marker><marker id="SvgjsMarker1131" markerWidth="13" markerHeight="9" refX="9.5" refY="4.5" viewBox="0 0 13 9" orient="auto" markerUnits="userSpaceOnUse" stroke-dasharray="0,0"><path id="SvgjsPath1132" d="M0,0 L13,4.5 L0,9 L0,0" fill="#323232" stroke="#323232" stroke-width="1"></path></marker><marker id="SvgjsMarker1155" markerWidth="13" markerHeight="9" refX="9.5" refY="4.5" viewBox="0 0 13 9" orient="auto" markerUnits="userSpaceOnUse" stroke-dasharray="0,0"><path id="SvgjsPath1156" d="M0,0 L13,4.5 L0,9 L0,0" fill="#323232" stroke="#323232" stroke-width="1"></path></marker><marker id="SvgjsMarker1179" markerWidth="13" markerHeight="9" refX="9.5" refY="4.5" viewBox="0 0 13 9" orient="auto" markerUnits="userSpaceOnUse" stroke-dasharray="0,0"><path id="SvgjsPath1180" d="M0,0 L13,4.5 L0,9 L0,0" fill="#323232" stroke="#323232" stroke-width="1"></path></marker><marker id="SvgjsMarker1183" markerWidth="13" markerHeight="9" refX="9.5" refY="4.5" viewBox="0 0 13 9" orient="auto" markerUnits="userSpaceOnUse" stroke-dasharray="0,0"><path id="SvgjsPath1184" d="M0,0 L13,4.5 L0,9 L0,0" fill="#323232" stroke="#323232" stroke-width="1"></path></marker><marker id="SvgjsMarker1191" markerWidth="13" markerHeight="9" refX="9.5" refY="4.5" viewBox="0 0 13 9" orient="auto" markerUnits="userSpaceOnUse" stroke-dasharray="0,0"><path id="SvgjsPath1192" d="M0,0 L13,4.5 L0,9 L0,0" fill="#323232" stroke="#323232" stroke-width="1"></path></marker><marker id="SvgjsMarker1195" markerWidth="13" markerHeight="9" refX="9.5" refY="4.5" viewBox="0 0 13 9" orient="auto" markerUnits="userSpaceOnUse" stroke-dasharray="0,0"><path id="SvgjsPath1196" d="M0,0 L13,4.5 L0,9 L0,0" fill="#323232" stroke="#323232" stroke-width="1"></path></marker><marker id="SvgjsMarker1211" markerWidth="13" markerHeight="9" refX="9.5" refY="4.5" viewBox="0 0 13 9" orient="auto" markerUnits="userSpaceOnUse" stroke-dasharray="0,0"><path id="SvgjsPath1212" d="M0,0 L13,4.5 L0,9 L0,0" fill="#323232" stroke="#323232" stroke-width="1"></path></marker></defs><rect id="svgbackgroundid" width="742.5" height="573.5" fill="transparent"></rect><rect id="SvgjsRect1009" width="742.5" height="573.5" fill="url(#pattern_mark_0)"></rect><rect id="SvgjsRect1010" width="742.5" height="573.5" fill="url(#pattern_mark_1)"></rect><g id="SvgjsG1011" transform="translate(474.5,508.5)"><path id="SvgjsPath1012" d="M 0 0L 243 0L 243 40L 0 40Z" stroke="rgba(33,41,48,1)" stroke-width="1.5" fill-opacity="1" fill="#ffffff"></path><g id="SvgjsG1013"><text id="SvgjsText1014" font-family="微软雅黑" text-anchor="middle" font-size="13px" width="223px" fill="#323232" font-weight="400" align="middle" lineHeight="125%" anchor="middle" family="微软雅黑" size="13px" weight="400" font-style="" opacity="1" y="9.375" transform="rotate(0)"></text></g></g><g id="SvgjsG1015" transform="translate(194.5,508.5)"><path id="SvgjsPath1016" d="M 0 0L 243 0L 243 40L 0 40Z" stroke="rgba(33,41,48,1)" stroke-width="1.5" fill-opacity="1" fill="#ffffff"></path><g id="SvgjsG1017"><text id="SvgjsText1018" font-family="微软雅黑" text-anchor="middle" font-size="13px" width="223px" fill="#323232" font-weight="400" align="middle" lineHeight="125%" anchor="middle" family="微软雅黑" size="13px" weight="400" font-style="" opacity="1" y="9.375" transform="rotate(0)"></text></g></g><g id="SvgjsG1019" transform="translate(133,203.5)"><path id="SvgjsPath1020" d="M 0 0L 350 0L 350 32L 0 32Z" stroke="rgba(33,41,48,1)" stroke-width="1.5" fill-opacity="1" fill="#94e0e1"></path><g id="SvgjsG1021"><text id="SvgjsText1022" font-family="微软雅黑" text-anchor="middle" font-size="13px" width="330px" fill="#323232" font-weight="400" align="middle" lineHeight="125%" anchor="middle" family="微软雅黑" size="13px" weight="400" font-style="" opacity="1" y="5.375" transform="rotate(0)"></text></g></g><g id="SvgjsG1023"><path id="SvgjsPath1024" d="M189 203.5L189.73902522783212 234.7502096340429" stroke="#323232" stroke-width="1.5" fill="none"></path></g><g id="SvgjsG1025"><path id="SvgjsPath1026" d="M249 235.5L249.48897725428418 204.2499082034734" stroke="#323232" stroke-width="1.5" fill="none"></path></g><g id="SvgjsG1027"><path id="SvgjsPath1028" d="M308 234.75L308 204.25" stroke="#323232" stroke-width="1.5" fill="none"></path></g><g id="SvgjsG1029"><path id="SvgjsPath1030" d="M423.75986536557434 204.24997636971761L424 234.5" stroke="#323232" stroke-width="1.5" fill="none"></path></g><g id="SvgjsG1031" transform="translate(110,199.5)"><path id="SvgjsPath1032" d="M 0 0L 100 0L 100 40L 0 40Z" stroke="none" fill="none"></path><g id="SvgjsG1033"><text id="SvgjsText1034" font-family="微软雅黑" text-anchor="middle" font-size="13px" width="100px" fill="#323232" font-weight="700" align="middle" lineHeight="125%" anchor="middle" family="微软雅黑" size="13px" weight="700" font-style="" opacity="1" y="9.375" transform="rotate(0)"><tspan id="SvgjsTspan1035" dy="16.25" x="50"><tspan id="SvgjsTspan1036" style="">0</tspan></tspan></text></g></g><g id="SvgjsG1037" transform="translate(167.5,199.5)"><path id="SvgjsPath1038" d="M 0 0L 100 0L 100 40L 0 40Z" stroke="none" fill="none"></path><g id="SvgjsG1039"><text id="SvgjsText1040" font-family="微软雅黑" text-anchor="middle" font-size="13px" width="100px" fill="#323232" font-weight="700" align="middle" lineHeight="125%" anchor="middle" family="微软雅黑" size="13px" weight="700" font-style="" opacity="1" y="9.375" transform="rotate(0)"><tspan id="SvgjsTspan1041" dy="16.25" x="50"><tspan id="SvgjsTspan1042" style="">1</tspan></tspan></text></g></g><g id="SvgjsG1043" transform="translate(228,199.5)"><path id="SvgjsPath1044" d="M 0 0L 100 0L 100 40L 0 40Z" stroke="none" fill="none"></path><g id="SvgjsG1045"><text id="SvgjsText1046" font-family="微软雅黑" text-anchor="middle" font-size="13px" width="100px" fill="#323232" font-weight="700" align="middle" lineHeight="125%" anchor="middle" family="微软雅黑" size="13px" weight="700" font-style="" opacity="1" y="9.375" transform="rotate(0)"><tspan id="SvgjsTspan1047" dy="16.25" x="50"><tspan id="SvgjsTspan1048" style="">2</tspan></tspan></text></g></g><g id="SvgjsG1049" transform="translate(318,195.5)"><path id="SvgjsPath1050" d="M 0 0L 100 0L 100 40L 0 40Z" stroke="none" fill="none"></path><g id="SvgjsG1051"><text id="SvgjsText1052" font-family="微软雅黑" text-anchor="middle" font-size="22px" width="100px" fill="#323232" font-weight="400" align="middle" lineHeight="125%" anchor="middle" family="微软雅黑" size="22px" weight="400" font-style="" opacity="1" y="0.25" transform="rotate(0)"><tspan id="SvgjsTspan1053" dy="27.5" x="50"><tspan id="SvgjsTspan1054" style="font-weight: bold;">...</tspan></tspan></text></g></g><g id="SvgjsG1055" transform="translate(401,199.5)"><path id="SvgjsPath1056" d="M 0 0L 100 0L 100 40L 0 40Z" stroke="none" fill="none"></path><g id="SvgjsG1057"><text id="SvgjsText1058" font-family="微软雅黑" text-anchor="middle" font-size="13px" width="100px" fill="#323232" font-weight="700" align="middle" lineHeight="125%" anchor="middle" family="微软雅黑" size="13px" weight="700" font-style="" opacity="1" y="9.375" transform="rotate(0)"><tspan id="SvgjsTspan1059" dy="16.25" x="50"><tspan id="SvgjsTspan1060" style="">n</tspan></tspan></text></g></g><g id="SvgjsG1061" transform="translate(102,288)"><path id="SvgjsPath1062" d="M 0 0L 116 0L 116 143L 0 143Z" stroke="rgba(33,41,48,1)" stroke-width="1.5" fill-opacity="1" fill="#d2d6f9"></path><g id="SvgjsG1063"><text id="SvgjsText1064" font-family="微软雅黑" text-anchor="middle" font-size="13px" width="96px" fill="#323232" font-weight="400" align="middle" lineHeight="125%" anchor="middle" family="微软雅黑" size="13px" weight="400" font-style="" opacity="1" y="60.875" transform="rotate(0)"></text></g></g><g id="SvgjsG1065" transform="translate(110,305)"><path id="SvgjsPath1066" d="M 0 0L 43 0L 43 22L 0 22Z" stroke="rgba(33,41,48,1)" stroke-width="1.5" fill-opacity="1" fill="#f6edc1"></path><g id="SvgjsG1067"><text id="SvgjsText1068" font-family="微软雅黑" text-anchor="middle" font-size="13px" width="23px" fill="#323232" font-weight="400" align="middle" lineHeight="125%" anchor="middle" family="微软雅黑" size="13px" weight="400" font-style="" opacity="1" y="0.375" transform="rotate(0)"></text></g></g><g id="SvgjsG1069" transform="translate(110,397)"><path id="SvgjsPath1070" d="M 0 0L 43 0L 43 22L 0 22Z" stroke="rgba(33,41,48,1)" stroke-width="1.5" fill-opacity="1" fill="#f6edc1"></path><g id="SvgjsG1071"><text id="SvgjsText1072" font-family="微软雅黑" text-anchor="middle" font-size="13px" width="23px" fill="#323232" font-weight="400" align="middle" lineHeight="125%" anchor="middle" family="微软雅黑" size="13px" weight="400" font-style="" opacity="1" y="0.375" transform="rotate(0)"></text></g></g><g id="SvgjsG1073" transform="translate(110,351)"><path id="SvgjsPath1074" d="M 0 0L 43 0L 43 22L 0 22Z" stroke="rgba(33,41,48,1)" stroke-width="1.5" fill-opacity="1" fill="#f6edc1"></path><g id="SvgjsG1075"><text id="SvgjsText1076" font-family="微软雅黑" text-anchor="middle" font-size="13px" width="23px" fill="#323232" font-weight="400" align="middle" lineHeight="125%" anchor="middle" family="微软雅黑" size="13px" weight="400" font-style="" opacity="1" y="0.375" transform="rotate(0)"></text></g></g><g id="SvgjsG1077"><path id="SvgjsPath1078" d="M131.5 327.75L131.5 350.25" stroke="#323232" stroke-width="1.5" fill="none"></path></g><g id="SvgjsG1079"><path id="SvgjsPath1080" d="M131.5 373.75L131.5 396.25" stroke="#323232" stroke-width="1.5" fill="none"></path></g><g id="SvgjsG1081" transform="translate(167,305)"><path id="SvgjsPath1082" d="M 0 0L 43 0L 43 22L 0 22Z" stroke-dasharray="10,6" stroke="rgba(33,41,48,1)" stroke-width="1.5" fill-opacity="1" fill="#caedb4"></path><g id="SvgjsG1083"><text id="SvgjsText1084" font-family="微软雅黑" text-anchor="middle" font-size="13px" width="23px" fill="#323232" font-weight="400" align="middle" lineHeight="125%" anchor="middle" family="微软雅黑" size="13px" weight="400" font-style="" opacity="1" y="0.375" transform="rotate(0)"></text></g></g><g id="SvgjsG1085" transform="translate(167,397)"><path id="SvgjsPath1086" d="M 0 0L 43 0L 43 22L 0 22Z" stroke="rgba(33,41,48,1)" stroke-width="1.5" fill-opacity="1" fill="#caedb4"></path><g id="SvgjsG1087"><text id="SvgjsText1088" font-family="微软雅黑" text-anchor="middle" font-size="13px" width="23px" fill="#323232" font-weight="400" align="middle" lineHeight="125%" anchor="middle" family="微软雅黑" size="13px" weight="400" font-style="" opacity="1" y="0.375" transform="rotate(0)"></text></g></g><g id="SvgjsG1089" transform="translate(167,351)"><path id="SvgjsPath1090" d="M 0 0L 43 0L 43 22L 0 22Z" stroke="rgba(33,41,48,1)" stroke-width="1.5" fill-opacity="1" fill="#f5b9b7"></path><g id="SvgjsG1091"><text id="SvgjsText1092" font-family="微软雅黑" text-anchor="middle" font-size="13px" width="23px" fill="#323232" font-weight="400" align="middle" lineHeight="125%" anchor="middle" family="微软雅黑" size="13px" weight="400" font-style="" opacity="1" y="0.375" transform="rotate(0)"></text></g></g><g id="SvgjsG1093"><path id="SvgjsPath1094" d="M188.5 327.75L188.5 350.25" stroke="#323232" stroke-width="1.5" fill="none"></path></g><g id="SvgjsG1095"><path id="SvgjsPath1096" d="M188.5 373.75L188.5 396.25" stroke="#323232" stroke-width="1.5" fill="none"></path></g><g id="SvgjsG1097"><path id="SvgjsPath1098" d="M160 240.25L160 263.75L160 263.75L160 285.29999999999995" stroke="#323232" stroke-width="1.5" fill="none" marker-end="url(#SvgjsMarker1099)"></path></g><g id="SvgjsG1101"><path id="SvgjsPath1102" d="M308 362L259 362L259 362L212.7 362" stroke="#323232" stroke-width="1.5" fill="none" marker-end="url(#SvgjsMarker1103)"></path><rect id="SvgjsRect1105" width="86" height="16" x="243.42264150943396" y="354" fill="#ffffff"></rect><text id="SvgjsText1106" font-family="微软雅黑" text-anchor="middle" font-size="13px" width="86px" fill="#323232" font-weight="700" align="top" lineHeight="16px" anchor="middle" family="微软雅黑" size="13px" weight="700" font-style="" opacity="1" y="351.375" transform="rotate(0)"><tspan id="SvgjsTspan1107" dy="16.25" x="286.42264150943396"><tspan id="SvgjsTspan1108" style="">break_point</tspan></tspan></text></g><g id="SvgjsG1109" transform="translate(220,25)"><path id="SvgjsPath1110" d="M 0 0L 116 0L 116 143L 0 143Z" stroke="rgba(33,41,48,1)" stroke-width="1.5" fill-opacity="1" fill="#d2d6f9"></path><g id="SvgjsG1111"><text id="SvgjsText1112" font-family="微软雅黑" text-anchor="middle" font-size="13px" width="96px" fill="#323232" font-weight="400" align="middle" lineHeight="125%" anchor="middle" family="微软雅黑" size="13px" weight="400" font-style="" opacity="1" y="60.875" transform="rotate(0)"></text></g></g><g id="SvgjsG1113" transform="translate(25,142)"><path id="SvgjsPath1114" d="M 0 0L 43 0L 43 22L 0 22Z" stroke="rgba(33,41,48,1)" stroke-width="1.5" fill-opacity="1" fill="#f6edc1"></path><g id="SvgjsG1115"><text id="SvgjsText1116" font-family="微软雅黑" text-anchor="middle" font-size="13px" width="23px" fill="#323232" font-weight="400" align="middle" lineHeight="125%" anchor="middle" family="微软雅黑" size="13px" weight="400" font-style="" opacity="1" y="0.375" transform="rotate(0)"></text></g></g><g id="SvgjsG1117" transform="translate(393,288)"><path id="SvgjsPath1118" d="M 0 0L 116 0L 116 143L 0 143Z" stroke="rgba(33,41,48,1)" stroke-width="1.5" fill-opacity="1" fill="#d2d6f9"></path><g id="SvgjsG1119"><text id="SvgjsText1120" font-family="微软雅黑" text-anchor="middle" font-size="13px" width="96px" fill="#323232" font-weight="400" align="middle" lineHeight="125%" anchor="middle" family="微软雅黑" size="13px" weight="400" font-style="" opacity="1" y="52.375" transform="rotate(0)"><tspan id="SvgjsTspan1121" dy="16.25" x="58"><tspan id="SvgjsTspan1122" style="font-weight: bold;">mian_buf和</tspan></tspan><tspan id="SvgjsTspan1123" dy="16.25" x="58"><tspan id="SvgjsTspan1124" style="font-weight: bold;">aux_buf均为空</tspan></tspan></text></g></g><g id="SvgjsG1125"><path id="SvgjsPath1126" d="M451 240.25L451 285.29999999999995" stroke="#323232" stroke-width="1.5" fill="none" marker-end="url(#SvgjsMarker1127)"></path></g><g id="SvgjsG1129"><path id="SvgjsPath1130" d="M449 261L308 261L308 261L167 261" stroke="#323232" stroke-width="1.5" fill="none" marker-end="url(#SvgjsMarker1131)"></path><rect id="SvgjsRect1133" width="125" height="16" x="239.5" y="253" fill="#ffffff"></rect><text id="SvgjsText1134" font-family="微软雅黑" text-anchor="middle" font-size="13px" width="125px" fill="#323232" font-weight="700" align="top" lineHeight="16px" anchor="middle" family="微软雅黑" size="13px" weight="700" font-style="" opacity="1" y="250.375" transform="rotate(0)"><tspan id="SvgjsTspan1135" dy="16.25" x="302"><tspan id="SvgjsTspan1136" style="">Step1:从后往前查找</tspan></tspan></text></g><g id="SvgjsG1137" transform="translate(218,517.5)"><path id="SvgjsPath1138" d="M 0 0L 43 0L 43 22L 0 22Z" stroke-dasharray="10,6" stroke="rgba(33,41,48,1)" stroke-width="1.5" fill-opacity="1" fill="#caedb4"></path><g id="SvgjsG1139"><text id="SvgjsText1140" font-family="微软雅黑" text-anchor="middle" font-size="13px" width="23px" fill="#323232" font-weight="400" align="middle" lineHeight="125%" anchor="middle" family="微软雅黑" size="13px" weight="400" font-style="" opacity="1" y="0.375" transform="rotate(0)"></text></g></g><g id="SvgjsG1141" transform="translate(375.5,517.5)"><path id="SvgjsPath1142" d="M 0 0L 43 0L 43 22L 0 22Z" stroke="rgba(33,41,48,1)" stroke-width="1.5" fill-opacity="1" fill="#caedb4"></path><g id="SvgjsG1143"><text id="SvgjsText1144" font-family="微软雅黑" text-anchor="middle" font-size="13px" width="23px" fill="#323232" font-weight="400" align="middle" lineHeight="125%" anchor="middle" family="微软雅黑" size="13px" weight="400" font-style="" opacity="1" y="0.375" transform="rotate(0)"></text></g></g><g id="SvgjsG1145" transform="translate(298,517.5)"><path id="SvgjsPath1146" d="M 0 0L 43 0L 43 22L 0 22Z" stroke="rgba(33,41,48,1)" stroke-width="1.5" fill-opacity="1" fill="#f5b9b7"></path><g id="SvgjsG1147"><text id="SvgjsText1148" font-family="微软雅黑" text-anchor="middle" font-size="13px" width="23px" fill="#323232" font-weight="400" align="middle" lineHeight="125%" anchor="middle" family="微软雅黑" size="13px" weight="400" font-style="" opacity="1" y="0.375" transform="rotate(0)"></text></g></g><g id="SvgjsG1149"><path id="SvgjsPath1150" d="M261.75 528.5L297.25 528.5" stroke="#323232" stroke-width="1.5" fill="none"></path></g><g id="SvgjsG1151"><path id="SvgjsPath1152" d="M341.75 528.5L374.75 528.5" stroke="#323232" stroke-width="1.5" fill="none"></path></g><g id="SvgjsG1153"><path id="SvgjsPath1154" d="M160.0230440526876 431.7496458974981C 160 476.37884969895117 172.62115030104883 528.5 215.32120472880513 528.1622783764341" stroke="#323232" stroke-width="1.5" fill="none" marker-end="url(#SvgjsMarker1155)"></path><rect id="SvgjsRect1157" width="177" height="16" x="73.93238654697973" y="456.34852087577815" fill="#ffffff"></rect><text id="SvgjsText1158" font-family="微软雅黑" text-anchor="middle" font-size="13px" width="177px" fill="#323232" font-weight="700" align="top" lineHeight="16px" anchor="middle" family="微软雅黑" size="13px" weight="700" font-style="" opacity="1" y="453.72352087577815" transform="rotate(0)"><tspan id="SvgjsTspan1159" dy="16.25" x="162.43238654697973"><tspan id="SvgjsTspan1160" style="">Step2:从断点标记处开始执行</tspan></tspan></text></g><g id="SvgjsG1161" transform="translate(501,517.5)"><path id="SvgjsPath1162" d="M 0 0L 43 0L 43 22L 0 22Z" stroke-dasharray="10,6" stroke="rgba(33,41,48,1)" stroke-width="1.5" fill-opacity="1" fill="#caedb4"></path><g id="SvgjsG1163"><text id="SvgjsText1164" font-family="微软雅黑" text-anchor="middle" font-size="13px" width="23px" fill="#323232" font-weight="400" align="middle" lineHeight="125%" anchor="middle" family="微软雅黑" size="13px" weight="400" font-style="" opacity="1" y="0.375" transform="rotate(0)"></text></g></g><g id="SvgjsG1165" transform="translate(658.5,517.5)"><path id="SvgjsPath1166" d="M 0 0L 43 0L 43 22L 0 22Z" stroke="rgba(33,41,48,1)" stroke-width="1.5" fill-opacity="1" fill="#f5b9b7"></path><g id="SvgjsG1167"><text id="SvgjsText1168" font-family="微软雅黑" text-anchor="middle" font-size="13px" width="23px" fill="#323232" font-weight="400" align="middle" lineHeight="125%" anchor="middle" family="微软雅黑" size="13px" weight="400" font-style="" opacity="1" y="0.375" transform="rotate(0)"></text></g></g><g id="SvgjsG1169" transform="translate(581,517.5)"><path id="SvgjsPath1170" d="M 0 0L 43 0L 43 22L 0 22Z" stroke-dasharray="10,6" stroke="rgba(33,41,48,1)" stroke-width="1.5" fill-opacity="1" fill="#caedb4"></path><g id="SvgjsG1171"><text id="SvgjsText1172" font-family="微软雅黑" text-anchor="middle" font-size="13px" width="23px" fill="#323232" font-weight="400" align="middle" lineHeight="125%" anchor="middle" family="微软雅黑" size="13px" weight="400" font-style="" opacity="1" y="0.375" transform="rotate(0)"></text></g></g><g id="SvgjsG1173"><path id="SvgjsPath1174" d="M544.75 528.5L580.25 528.5" stroke="#323232" stroke-width="1.5" fill="none"></path></g><g id="SvgjsG1175"><path id="SvgjsPath1176" d="M624.75 528.5L657.75 528.5" stroke="#323232" stroke-width="1.5" fill="none"></path></g><g id="SvgjsG1177"><path id="SvgjsPath1178" d="M419.25 528.5L459.75 528.5L459.75 528.5L498.29999999999995 528.5" stroke="#323232" stroke-width="1.5" fill="none" marker-end="url(#SvgjsMarker1179)"></path></g><g id="SvgjsG1181"><path id="SvgjsPath1182" d="M595.3862909962919 508.06888370621414C 492.5 432.5 443.5 517.5 162.5892735397904 431.7652859179034" stroke="#323232" stroke-width="1.5" fill="none" marker-end="url(#SvgjsMarker1183)"></path><rect id="SvgjsRect1185" width="307" height="16" x="292.2469455670102" y="465.72927120301466" fill="#ffffff"></rect><text id="SvgjsText1186" font-family="微软雅黑" text-anchor="middle" font-size="13px" width="307px" fill="#323232" font-weight="700" align="top" lineHeight="16px" anchor="middle" family="微软雅黑" size="13px" weight="700" font-style="" opacity="1" y="463.10427120301466" transform="rotate(0)"><tspan id="SvgjsTspan1187" dy="16.25" x="445.7469455670102"><tspan id="SvgjsTspan1188" style="">Step3:执行下一个任务时，出现了优先级更高的任务</tspan></tspan></text></g><g id="SvgjsG1189"><path id="SvgjsPath1190" d="M278 198.75C 278 186.89999999999998 278 180.60000000000002 278 170.70000000000005" stroke="#323232" stroke-width="1.5" fill="none" marker-end="url(#SvgjsMarker1191)"></path></g><g id="SvgjsG1193"><path id="SvgjsPath1194" d="M68.74845695523517 152.95191480310848C 132.86447409792206 153 155.13552590207794 96.5 217.3055549611534 96.67310670880966" stroke="#323232" stroke-width="1.5" fill="none" marker-end="url(#SvgjsMarker1195)"></path><rect id="SvgjsRect1197" width="117" height="16" x="77.54131972084355" y="121.81689339194591" fill="#ffffff"></rect><text id="SvgjsText1198" font-family="微软雅黑" text-anchor="middle" font-size="13px" width="117px" fill="#323232" font-weight="700" align="top" lineHeight="16px" anchor="middle" family="微软雅黑" size="13px" weight="700" font-style="" opacity="1" y="119.19189339194591" transform="rotate(0)"><tspan id="SvgjsTspan1199" dy="16.25" x="136.04131972084355"><tspan id="SvgjsTspan1200" style="">优先级更高的新任务</tspan></tspan></text></g><g id="SvgjsG1201" transform="translate(233,132)"><path id="SvgjsPath1202" d="M 0 0L 43 0L 43 22L 0 22Z" stroke="rgba(33,41,48,1)" stroke-width="1.5" fill-opacity="1" fill="#f5b9b7"></path><g id="SvgjsG1203"><text id="SvgjsText1204" font-family="微软雅黑" text-anchor="middle" font-size="13px" width="23px" fill="#323232" font-weight="400" align="middle" lineHeight="125%" anchor="middle" family="微软雅黑" size="13px" weight="400" font-style="" opacity="1" y="0.375" transform="rotate(0)"></text></g></g><g id="SvgjsG1205" transform="translate(483,138)"><path id="SvgjsPath1206" d="M 0 0L 43 0L 43 22L 0 22Z" stroke="rgba(33,41,48,1)" stroke-width="1.5" fill-opacity="1" fill="#f5b9b7"></path><g id="SvgjsG1207"><text id="SvgjsText1208" font-family="微软雅黑" text-anchor="middle" font-size="13px" width="23px" fill="#323232" font-weight="400" align="middle" lineHeight="125%" anchor="middle" family="微软雅黑" size="13px" weight="400" font-style="" opacity="1" y="0.375" transform="rotate(0)"></text></g></g><g id="SvgjsG1209"><path id="SvgjsPath1210" d="M336.74845152606855 96.54816962866397C 398.4374887387377 96.5 420.5625112612623 149 480.3055745061531 148.82658933680966" stroke="#323232" stroke-width="1.5" fill="none" marker-end="url(#SvgjsMarker1211)"></path><rect id="SvgjsRect1213" width="138" height="16" x="335.2766788998803" y="111.59742588209565" fill="#ffffff"></rect><text id="SvgjsText1214" font-family="微软雅黑" text-anchor="middle" font-size="13px" width="138px" fill="#323232" font-weight="700" align="top" lineHeight="16px" anchor="middle" family="微软雅黑" size="13px" weight="700" font-style="" opacity="1" y="108.97242588209565" transform="rotate(0)"><tspan id="SvgjsTspan1215" dy="16.25" x="404.2766788998803"><tspan id="SvgjsTspan1216" style="">Step4:取出任务并执行</tspan></tspan></text></g></svg>