<svg id="SvgjsSvg1213" width="839" height="389" xmlns="http://www.w3.org/2000/svg" version="1.1" xmlns:xlink="http://www.w3.org/1999/xlink" xmlns:svgjs="http://svgjs.com/svgjs"><defs id="SvgjsDefs1214"><pattern patternUnits="userSpaceOnUse" id="pattern_mark_0" width="300" height="300"><text x="150" y="100" fill="rgba(229,229,229,0.8)" font-size="18" transform="rotate(-45, 150, 150)" style="dominant-baseline: middle; text-anchor: middle;"></text></pattern><pattern patternUnits="userSpaceOnUse" id="pattern_mark_1" width="300" height="300"><text x="150" y="200" fill="rgba(229,229,229,0.8)" font-size="18" transform="rotate(-45, 150, 150)" style="dominant-baseline: middle; text-anchor: middle;"></text></pattern><marker id="SvgjsMarker1236" markerWidth="13" markerHeight="9" refX="9.5" refY="4.5" viewBox="0 0 13 9" orient="auto" markerUnits="userSpaceOnUse" stroke-dasharray="0,0"><path id="SvgjsPath1237" d="M0,0 L13,4.5 L0,9 L0,0" fill="#a23735" stroke="#a23735" stroke-width="1"></path></marker><marker id="SvgjsMarker1264" markerWidth="13" markerHeight="9" refX="9.5" refY="4.5" viewBox="0 0 13 9" orient="auto" markerUnits="userSpaceOnUse" stroke-dasharray="0,0"><path id="SvgjsPath1265" d="M0,0 L13,4.5 L0,9 L0,0" fill="#5b79e8" stroke="#5b79e8" stroke-width="1"></path></marker><marker id="SvgjsMarker1268" markerWidth="13" markerHeight="9" refX="9.5" refY="4.5" viewBox="0 0 13 9" orient="auto" markerUnits="userSpaceOnUse" stroke-dasharray="0,0"><path id="SvgjsPath1269" d="M0,0 L13,4.5 L0,9 L0,0" fill="#5b79e8" stroke="#5b79e8" stroke-width="1"></path></marker></defs><rect id="svgbackgroundid" width="839" height="389" fill="transparent"></rect><rect id="SvgjsRect1216" width="839" height="389" fill="url(#pattern_mark_0)"></rect><rect id="SvgjsRect1217" width="839" height="389" fill="url(#pattern_mark_1)"></rect><g id="SvgjsG1218" transform="translate(158,25)"><path id="SvgjsPath1219" d="M 0 0L 140 0L 140 75L 0 75Z" stroke="rgba(33,41,48,1)" stroke-width="1.5" fill-opacity="1" fill="#f6edc1"></path><g id="SvgjsG1220"><text id="SvgjsText1221" font-family="微软雅黑" text-anchor="middle" font-size="13px" width="120px" fill="#323232" font-weight="700" align="middle" lineHeight="125%" anchor="middle" family="微软雅黑" size="13px" weight="700" font-style="" opacity="1" y="26.875" transform="rotate(0)"><tspan id="SvgjsTspan1222" dy="16" x="70"><tspan id="SvgjsTspan1223" style="text-decoration:;">应用程序</tspan></tspan></text></g></g><g id="SvgjsG1224" transform="translate(158,155)"><path id="SvgjsPath1225" d="M 0 0L 140 0L 140 75L 0 75Z" stroke="rgba(33,41,48,1)" stroke-width="1.5" fill-opacity="1" fill="#d2d6f9"></path><g id="SvgjsG1226"><text id="SvgjsText1227" font-family="微软雅黑" text-anchor="middle" font-size="13px" width="120px" fill="#323232" font-weight="700" align="middle" lineHeight="125%" anchor="middle" family="微软雅黑" size="13px" weight="700" font-style="" opacity="1" y="26.875" transform="rotate(0)"><tspan id="SvgjsTspan1228" dy="16" x="70"><tspan id="SvgjsTspan1229" style="text-decoration:;">操作系统</tspan></tspan></text></g></g><g id="SvgjsG1230" transform="translate(158,289)"><path id="SvgjsPath1231" d="M 0 0L 140 0L 140 75L 0 75Z" stroke="rgba(33,41,48,1)" stroke-width="1.5" fill-opacity="1" fill="#e5f6da"></path><g id="SvgjsG1232"><text id="SvgjsText1233" font-family="微软雅黑" text-anchor="middle" font-size="13px" width="120px" fill="#323232" font-weight="400" align="middle" lineHeight="125%" anchor="middle" family="微软雅黑" size="13px" weight="400" font-style="" opacity="1" y="26.875" transform="rotate(0)"></text></g></g><g id="SvgjsG1234"><path id="SvgjsPath1235" d="M228 100.75L228 127.5L228 127.5L228 152.3" stroke="#a23735" stroke-width="1.5" fill="none" marker-end="url(#SvgjsMarker1236)"></path><rect id="SvgjsRect1238" width="78" height="16" x="189" y="116.74741379310345" fill="#ffffff"></rect><text id="SvgjsText1239" font-family="微软雅黑" text-anchor="middle" font-size="13px" width="78px" fill="#a23735" font-weight="700" align="top" lineHeight="16px" anchor="middle" family="微软雅黑" size="13px" weight="700" font-style="" opacity="1" y="114.12241379310345" transform="rotate(0)"><tspan id="SvgjsTspan1240" dy="16" x="228"><tspan id="SvgjsTspan1241" style="text-decoration:;">用户接口程序</tspan></tspan></text></g><g id="SvgjsG1242" transform="translate(167,297)"><path id="SvgjsPath1243" d="M 0 0L 47 0L 47 28L 0 28Z" stroke="rgba(33,41,48,1)" stroke-width="1.5" fill-opacity="1" fill="#b0e38f"></path><g id="SvgjsG1244"><text id="SvgjsText1245" font-family="微软雅黑" text-anchor="middle" font-size="13px" width="27px" fill="#323232" font-weight="700" align="middle" lineHeight="125%" anchor="middle" family="微软雅黑" size="13px" weight="700" font-style="" opacity="1" y="3.375" transform="rotate(0)"><tspan id="SvgjsTspan1246" dy="16" x="23.5"><tspan id="SvgjsTspan1247" style="text-decoration:;">CPU</tspan></tspan></text></g></g><g id="SvgjsG1248" transform="translate(167.5,332)"><path id="SvgjsPath1249" d="M 0 0L 46 0L 46 26L 0 26Z" stroke="rgba(33,41,48,1)" stroke-width="1.5" fill-opacity="1" fill="#b0e38f"></path><g id="SvgjsG1250"><text id="SvgjsText1251" font-family="微软雅黑" text-anchor="middle" font-size="13px" width="26px" fill="#323232" font-weight="400" align="middle" lineHeight="125%" anchor="middle" family="微软雅黑" size="13px" weight="400" font-style="" opacity="1" y="2.375" transform="rotate(0)"><tspan id="SvgjsTspan1252" dy="16" x="23"><tspan id="SvgjsTspan1253" style="text-decoration:;font-weight: bold;">内存</tspan></tspan></text></g></g><g id="SvgjsG1254" transform="translate(225,297)"><path id="SvgjsPath1255" d="M 0 0L 64 0L 64 61L 0 61Z" stroke="rgba(33,41,48,1)" stroke-width="1.5" fill-opacity="1" fill="#b0e38f"></path><g id="SvgjsG1256"><text id="SvgjsText1257" font-family="微软雅黑" text-anchor="middle" font-size="13px" width="44px" fill="#323232" font-weight="400" align="middle" lineHeight="125%" anchor="middle" family="微软雅黑" size="13px" weight="400" font-style="" opacity="1" y="11.375" transform="rotate(0)"><tspan id="SvgjsTspan1258" dy="16" x="32"><tspan id="SvgjsTspan1259" style="text-decoration:;font-weight: bold;">外设</tspan></tspan><tspan id="SvgjsTspan1260" dy="16" x="32"><tspan id="SvgjsTspan1261" style="text-decoration:;font-weight: bold;">IO设备</tspan></tspan></text></g></g><g id="SvgjsG1262"><path id="SvgjsPath1263" d="M193 288.9231114535959L193 259.83655572679794L193 259.83655572679794L193 232.7" stroke="#5b79e8" stroke-width="1.5" fill="none" marker-end="url(#SvgjsMarker1264)"></path></g><g id="SvgjsG1266"><path id="SvgjsPath1267" d="M265 230.75L265 259.5L265 259.5L265 286.3" stroke="#5b79e8" stroke-width="1.5" fill="none" marker-end="url(#SvgjsMarker1268)"></path></g><g id="SvgjsG1270" transform="translate(38,26)"><path id="SvgjsPath1271" d="M 117 0Q 108 0 108 9L 108 93Q 108 102 95 102Q 108 102 108 111L 108 195Q 108 204 117 204" stroke="rgba(33,41,48,1)" stroke-width="1.5" fill="none"></path><path id="SvgjsPath1272" d="M 0 0L 117 0L 117 204L 0 204Z" stroke="none" fill="none"></path><g id="SvgjsG1273"><text id="SvgjsText1274" font-family="微软雅黑" text-anchor="end" font-size="13px" width="90px" fill="#323232" font-weight="700" align="middle" lineHeight="125%" anchor="end" family="微软雅黑" size="13px" weight="700" font-style="" opacity="1" y="91.375" transform="rotate(0)"><tspan id="SvgjsTspan1275" dy="16" x="90"><tspan id="SvgjsTspan1276" style="text-decoration:;">软件</tspan></tspan></text></g></g><g id="SvgjsG1277" transform="translate(301,25)"><path id="SvgjsPath1278" d="M 0 129Q 9 129 9 120L 9 73.5Q 9 64.5 22 64.5Q 9 64.5 9 55.5L 9 9Q 9 0 0 0" stroke="rgba(162,55,53,1)" stroke-width="1.5" fill="none"></path><path id="SvgjsPath1279" d="M 0 0L 123 0L 123 129L 0 129Z" stroke="none" fill="none"></path><g id="SvgjsG1280"><text id="SvgjsText1281" font-family="微软雅黑" text-anchor="start" font-size="13px" width="96px" fill="#a23735" font-weight="700" align="middle" lineHeight="125%" anchor="start" family="微软雅黑" size="13px" weight="700" font-style="" opacity="1" y="53.875" transform="rotate(0)"><tspan id="SvgjsTspan1282" dy="16" x="27"><tspan id="SvgjsTspan1283" style="text-decoration:;">用户态</tspan></tspan></text></g></g><g id="SvgjsG1284" transform="translate(302.5,160)"><path id="SvgjsPath1285" d="M 0 65Q 9 65 9 58.5L 9 39Q 9 32.5 22 32.5Q 9 32.5 9 26L 9 6.5Q 9 0 0 0" stroke="rgba(91,121,232,1)" stroke-width="1.5" fill="none"></path><path id="SvgjsPath1286" d="M 0 0L 120 0L 120 65L 0 65Z" stroke="none" fill="none"></path><g id="SvgjsG1287"><text id="SvgjsText1288" font-family="微软雅黑" text-anchor="start" font-size="13px" width="93px" fill="#5b79e8" font-weight="700" align="middle" lineHeight="125%" anchor="start" family="微软雅黑" size="13px" weight="700" font-style="" opacity="1" y="21.875" transform="rotate(0)"><tspan id="SvgjsTspan1289" dy="16" x="27"><tspan id="SvgjsTspan1290" style="text-decoration:;">内核态</tspan></tspan></text></g></g><g id="SvgjsG1291" transform="translate(25,289)"><path id="SvgjsPath1292" d="M 130 0Q 121 0 121 7.5L 121 30Q 121 37.5 108 37.5Q 121 37.5 121 45L 121 67.5Q 121 75 130 75" stroke="rgba(33,41,48,1)" stroke-width="1.5" fill="none"></path><path id="SvgjsPath1293" d="M 0 0L 130 0L 130 75L 0 75Z" stroke="none" fill="none"></path><g id="SvgjsG1294"><text id="SvgjsText1295" font-family="微软雅黑" text-anchor="end" font-size="13px" width="103px" fill="#323232" font-weight="700" align="middle" lineHeight="125%" anchor="end" family="微软雅黑" size="13px" weight="700" font-style="" opacity="1" y="26.875" transform="rotate(0)"><tspan id="SvgjsTspan1296" dy="16" x="103"><tspan id="SvgjsTspan1297" style="text-decoration:;">硬件</tspan></tspan></text></g></g><g id="SvgjsG1298" transform="translate(389,173)"><path id="SvgjsPath1299" d="M 0 0L 82 0L 82 41L 0 41Z" stroke="rgba(33,41,48,1)" stroke-width="1.5" fill-opacity="1" fill="#d2d6f9"></path><g id="SvgjsG1300"><text id="SvgjsText1301" font-family="微软雅黑" text-anchor="middle" font-size="13px" width="62px" fill="#323232" font-weight="700" align="middle" lineHeight="125%" anchor="middle" family="微软雅黑" size="13px" weight="700" font-style="" opacity="1" y="9.875" transform="rotate(0)"><tspan id="SvgjsTspan1302" dy="16" x="41"><tspan id="SvgjsTspan1303" style="text-decoration:;">操作系统</tspan></tspan></text></g></g><g id="SvgjsG1304" transform="translate(449,84)"><path id="SvgjsPath1305" d="M 101 0Q 92 0 92 9L 92 100Q 92 109 79 109Q 92 109 92 118L 92 209Q 92 218 101 218" stroke="rgba(121,133,236,1)" stroke-width="1.5" fill="none"></path><path id="SvgjsPath1306" d="M 0 0L 101 0L 101 218L 0 218Z" stroke="none" fill="none"></path><g id="SvgjsG1307"><text id="SvgjsText1308" font-family="微软雅黑" text-anchor="end" font-size="13px" width="74px" fill="#7985ec" font-weight="700" align="middle" lineHeight="125%" anchor="end" family="微软雅黑" size="13px" weight="700" font-style="" opacity="1" y="98.375" transform="rotate(0)"><tspan id="SvgjsTspan1309" dy="16" x="74"><tspan id="SvgjsTspan1310" style="text-decoration:;">内核态</tspan></tspan></text></g></g><g id="SvgjsG1311" transform="translate(520,30)"><path id="SvgjsPath1312" d="M 0 0L 100 0L 100 40L 0 40Z" stroke="none" fill="none"></path><g id="SvgjsG1313"><text id="SvgjsText1314" font-family="微软雅黑" text-anchor="middle" font-size="13px" width="100px" fill="#323232" font-weight="700" align="middle" lineHeight="125%" anchor="middle" family="微软雅黑" size="13px" weight="700" font-style="" opacity="1" y="9.375" transform="rotate(0)"><tspan id="SvgjsTspan1315" dy="16" x="50"><tspan id="SvgjsTspan1316" style="text-decoration:;">指令集</tspan></tspan></text></g></g><g id="SvgjsG1317" transform="translate(520,69.5)"><path id="SvgjsPath1318" d="M 0 0L 100 0L 100 40L 0 40Z" stroke="none" fill="none"></path><g id="SvgjsG1319"><text id="SvgjsText1320" font-family="微软雅黑" text-anchor="middle" font-size="13px" width="100px" fill="#323232" font-weight="700" align="middle" lineHeight="125%" anchor="middle" family="微软雅黑" size="13px" weight="700" font-style="" opacity="1" y="9.375" transform="rotate(0)"><tspan id="SvgjsTspan1321" dy="16" x="50"><tspan id="SvgjsTspan1322" style="text-decoration:;">move</tspan></tspan></text></g></g><g id="SvgjsG1323" transform="translate(516.5,91)"><path id="SvgjsPath1324" d="M 0 0L 100 0L 100 40L 0 40Z" stroke="none" fill="none"></path><g id="SvgjsG1325"><text id="SvgjsText1326" font-family="微软雅黑" text-anchor="middle" font-size="13px" width="100px" fill="#323232" font-weight="700" align="middle" lineHeight="125%" anchor="middle" family="微软雅黑" size="13px" weight="700" font-style="" opacity="1" y="9.375" transform="rotate(0)"><tspan id="SvgjsTspan1327" dy="16" x="50"><tspan id="SvgjsTspan1328" style="text-decoration:;">add</tspan></tspan></text></g></g><g id="SvgjsG1329" transform="translate(515.5,113)"><path id="SvgjsPath1330" d="M 0 0L 100 0L 100 40L 0 40Z" stroke="none" fill="none"></path><g id="SvgjsG1331"><text id="SvgjsText1332" font-family="微软雅黑" text-anchor="middle" font-size="13px" width="100px" fill="#323232" font-weight="700" align="middle" lineHeight="125%" anchor="middle" family="微软雅黑" size="13px" weight="700" font-style="" opacity="1" y="9.375" transform="rotate(0)"><tspan id="SvgjsTspan1333" dy="16" x="50"><tspan id="SvgjsTspan1334" style="text-decoration:;">sub</tspan></tspan></text></g></g><g id="SvgjsG1335" transform="translate(516.5,133)"><path id="SvgjsPath1336" d="M 0 0L 100 0L 100 40L 0 40Z" stroke="none" fill="none"></path><g id="SvgjsG1337"><text id="SvgjsText1338" font-family="微软雅黑" text-anchor="middle" font-size="13px" width="100px" fill="#323232" font-weight="700" align="middle" lineHeight="125%" anchor="middle" family="微软雅黑" size="13px" weight="700" font-style="" opacity="1" y="9.375" transform="rotate(0)"><tspan id="SvgjsTspan1339" dy="16" x="50"><tspan id="SvgjsTspan1340" style="text-decoration:;">ret</tspan></tspan></text></g></g><g id="SvgjsG1341" transform="translate(520,154)"><path id="SvgjsPath1342" d="M 0 0L 100 0L 100 40L 0 40Z" stroke="none" fill="none"></path><g id="SvgjsG1343"><text id="SvgjsText1344" font-family="微软雅黑" text-anchor="middle" font-size="13px" width="100px" fill="#323232" font-weight="700" align="middle" lineHeight="125%" anchor="middle" family="微软雅黑" size="13px" weight="700" font-style="" opacity="1" y="9.375" transform="rotate(0)"><tspan id="SvgjsTspan1345" dy="16" x="50"><tspan id="SvgjsTspan1346" style="text-decoration:;">push</tspan></tspan></text></g></g><g id="SvgjsG1347" transform="translate(516.5,173.5)"><path id="SvgjsPath1348" d="M 0 0L 100 0L 100 40L 0 40Z" stroke="none" fill="none"></path><g id="SvgjsG1349"><text id="SvgjsText1350" font-family="微软雅黑" text-anchor="middle" font-size="13px" width="100px" fill="#323232" font-weight="700" align="middle" lineHeight="125%" anchor="middle" family="微软雅黑" size="13px" weight="700" font-style="" opacity="1" y="9.375" transform="rotate(0)"><tspan id="SvgjsTspan1351" dy="16" x="50"><tspan id="SvgjsTspan1352" style="text-decoration:;">...</tspan></tspan></text></g></g><g id="SvgjsG1353" transform="translate(516.5,190)"><path id="SvgjsPath1354" d="M 0 0L 100 0L 100 40L 0 40Z" stroke="none" fill="none"></path><g id="SvgjsG1355"><text id="SvgjsText1356" font-family="微软雅黑" text-anchor="middle" font-size="13px" width="100px" fill="#323232" font-weight="700" align="middle" lineHeight="125%" anchor="middle" family="微软雅黑" size="13px" weight="700" font-style="" opacity="1" y="9.375" transform="rotate(0)"><tspan id="SvgjsTspan1357" dy="16" x="50"><tspan id="SvgjsTspan1358" style="text-decoration:;">...</tspan></tspan></text></g></g><g id="SvgjsG1359" transform="translate(516.5,210)"><path id="SvgjsPath1360" d="M 0 0L 100 0L 100 40L 0 40Z" stroke="none" fill="none"></path><g id="SvgjsG1361"><text id="SvgjsText1362" font-family="微软雅黑" text-anchor="middle" font-size="13px" width="100px" fill="#323232" font-weight="700" align="middle" lineHeight="125%" anchor="middle" family="微软雅黑" size="13px" weight="700" font-style="" opacity="1" y="9.375" transform="rotate(0)"><tspan id="SvgjsTspan1363" dy="16" x="50"><tspan id="SvgjsTspan1364" style="text-decoration:;">cli</tspan></tspan></text></g></g><g id="SvgjsG1365" transform="translate(516.5,230)"><path id="SvgjsPath1366" d="M 0 0L 100 0L 100 40L 0 40Z" stroke="none" fill="none"></path><g id="SvgjsG1367"><text id="SvgjsText1368" font-family="微软雅黑" text-anchor="middle" font-size="13px" width="100px" fill="#323232" font-weight="700" align="middle" lineHeight="125%" anchor="middle" family="微软雅黑" size="13px" weight="700" font-style="" opacity="1" y="9.375" transform="rotate(0)"><tspan id="SvgjsTspan1369" dy="16" x="50"><tspan id="SvgjsTspan1370" style="text-decoration:;">sei</tspan></tspan></text></g></g><g id="SvgjsG1371" transform="translate(511.5,254)"><path id="SvgjsPath1372" d="M 0 0L 100 0L 100 40L 0 40Z" stroke="none" fill="none"></path><g id="SvgjsG1373"><text id="SvgjsText1374" font-family="微软雅黑" text-anchor="middle" font-size="13px" width="100px" fill="#323232" font-weight="700" align="middle" lineHeight="125%" anchor="middle" family="微软雅黑" size="13px" weight="700" font-style="" opacity="1" y="9.375" transform="rotate(0)"><tspan id="SvgjsTspan1375" dy="16" x="50"><tspan id="SvgjsTspan1376" style="text-decoration:;">in</tspan></tspan></text></g></g><g id="SvgjsG1377" transform="translate(516.5,273.5)"><path id="SvgjsPath1378" d="M 0 0L 100 0L 100 40L 0 40Z" stroke="none" fill="none"></path><g id="SvgjsG1379"><text id="SvgjsText1380" font-family="微软雅黑" text-anchor="middle" font-size="13px" width="100px" fill="#323232" font-weight="700" align="middle" lineHeight="125%" anchor="middle" family="微软雅黑" size="13px" weight="700" font-style="" opacity="1" y="9.375" transform="rotate(0)"><tspan id="SvgjsTspan1381" dy="16" x="50"><tspan id="SvgjsTspan1382" style="text-decoration:;">out</tspan></tspan></text></g></g><g id="SvgjsG1383" transform="translate(595,91)"><path id="SvgjsPath1384" d="M 0 110.5Q 9 110.5 9 101.5L 9 64.25Q 9 55.25 22 55.25Q 9 55.25 9 46.25L 9 9Q 9 0 0 0" stroke="rgba(162,55,53,1)" stroke-width="1.5" fill="none"></path><path id="SvgjsPath1385" d="M 0 0L 124 0L 124 110.5L 0 110.5Z" stroke="none" fill="none"></path><g id="SvgjsG1386"><text id="SvgjsText1387" font-family="微软雅黑" text-anchor="start" font-size="13px" width="97px" fill="#a23735" font-weight="700" align="middle" lineHeight="125%" anchor="start" family="微软雅黑" size="13px" weight="700" font-style="" opacity="1" y="44.625" transform="rotate(0)"><tspan id="SvgjsTspan1388" dy="16" x="27"><tspan id="SvgjsTspan1389" style="text-decoration:;">用户态</tspan></tspan></text></g></g><g id="SvgjsG1390" transform="translate(674,124)"><path id="SvgjsPath1391" d="M 0 0L 74 0L 74 35L 0 35Z" stroke="rgba(33,41,48,1)" stroke-width="1.5" fill-opacity="1" fill="#f6edc1"></path><g id="SvgjsG1392"><text id="SvgjsText1393" font-family="微软雅黑" text-anchor="middle" font-size="13px" width="54px" fill="#323232" font-weight="700" align="middle" lineHeight="125%" anchor="middle" family="微软雅黑" size="13px" weight="700" font-style="" opacity="1" y="6.875" transform="rotate(0)"><tspan id="SvgjsTspan1394" dy="16" x="37"><tspan id="SvgjsTspan1395" style="text-decoration:;">应用程序</tspan></tspan></text></g></g><g id="SvgjsG1396" transform="translate(597,214)"><path id="SvgjsPath1397" d="M 0 88Q 9 88 9 79.2L 9 52.8Q 9 44 22 44Q 9 44 9 35.2L 9 8.8Q 9 0 0 0" stroke="rgba(91,121,232,1)" stroke-width="1.5" fill="none"></path><path id="SvgjsPath1398" d="M 0 0L 120 0L 120 88L 0 88Z" stroke="none" fill="none"></path><g id="SvgjsG1399"><text id="SvgjsText1400" font-family="微软雅黑" text-anchor="start" font-size="13px" width="93px" fill="#5b79e8" font-weight="700" align="middle" lineHeight="125%" anchor="start" family="微软雅黑" size="13px" weight="700" font-style="" opacity="1" y="33.375" transform="rotate(0)"><tspan id="SvgjsTspan1401" dy="16" x="27"><tspan id="SvgjsTspan1402" style="text-decoration:;">特权指令</tspan></tspan></text></g></g><g id="SvgjsG1403" transform="translate(680,214)"><path id="SvgjsPath1404" d="M 20 0Q 18 0 18 8.8L 18 35.2Q 18 44 -2 44Q 18 44 18 52.8L 18 79.2Q 18 88 20 88" stroke="rgba(121,133,236,1)" stroke-width="1.5" fill="none"></path><path id="SvgjsPath1405" d="M 0 0L 20 0L 20 88L 0 88Z" stroke="none" fill="none"></path><g id="SvgjsG1406"><text id="SvgjsText1407" font-family="微软雅黑" text-anchor="end" font-size="13px" width="0" fill="#7985ec" font-weight="700" align="middle" lineHeight="125%" anchor="end" family="微软雅黑" size="13px" weight="700" font-style="" opacity="1" y="33.375" transform="rotate(0)"></text></g></g><g id="SvgjsG1408" transform="translate(688,210)"><path id="SvgjsPath1409" d="M 0 0L 100 0L 100 40L 0 40Z" stroke="none" fill="none"></path><g id="SvgjsG1410"><text id="SvgjsText1411" font-family="微软雅黑" text-anchor="middle" font-size="13px" width="100px" fill="#323232" font-weight="700" align="middle" lineHeight="125%" anchor="middle" family="微软雅黑" size="13px" weight="700" font-style="" opacity="1" y="9.375" transform="rotate(0)"><tspan id="SvgjsTspan1412" dy="16" x="50"><tspan id="SvgjsTspan1413" style="text-decoration:;">控制计算机</tspan></tspan></text></g></g><g id="SvgjsG1414" transform="translate(699,270)"><path id="SvgjsPath1415" d="M 0 0L 115 0L 115 40L 0 40Z" stroke="none" fill="none"></path><g id="SvgjsG1416"><text id="SvgjsText1417" font-family="微软雅黑" text-anchor="middle" font-size="13px" width="115px" fill="#323232" font-weight="700" align="middle" lineHeight="125%" anchor="middle" family="微软雅黑" size="13px" weight="700" font-style="" opacity="1" y="9.375" transform="rotate(0)"><tspan id="SvgjsTspan1418" dy="16" x="57.5"><tspan id="SvgjsTspan1419" style="text-decoration:;">直接操作硬件设备</tspan></tspan></text></g></g></svg>